<?xml version="1.0" standalone="no"?><!DOCTYPE svg PUBLIC "-//W3C//DTD SVG 1.1//EN" "http://www.w3.org/Graphics/SVG/1.1/DTD/svg11.dtd"><svg t="1588738529960" class="icon" viewBox="0 0 1024 1024" version="1.1" xmlns="http://www.w3.org/2000/svg" p-id="4007" width="24" height="24" xmlns:xlink="http://www.w3.org/1999/xlink"><defs><style type="text/css"></style></defs><path d="M995.84 885.0432L807.6288 696.7296c-3.4816-3.4816-7.2704-6.5536-11.1616-9.3184 48.8448-70.2464 77.6192-155.7504 77.6192-247.9104C873.984 199.5776 679.5264 5.12 439.6032 5.12 199.5776 5.12 5.12 199.5776 5.12 439.6032c0 239.9232 194.4576 434.4832 434.4832 434.4832 92.0576 0 177.664-28.7744 247.9104-77.6192 2.6624 3.9936 5.7344 7.68 9.3184 11.1616l188.3136 188.2112c30.6176 30.6176 80.1792 30.6176 110.8992 0 30.5152-30.6176 30.5152-80.1792-0.2048-110.7968z m-556.2368-83.456c-48.8448 0-96.256-9.6256-140.9024-28.3648-43.1104-18.2272-81.8176-44.3392-115.0976-77.6192s-59.392-71.9872-77.6192-115.0976C87.1424 535.8592 77.5168 488.448 77.5168 439.6032c0-48.8448 9.6256-96.256 28.3648-140.9024 18.2272-43.1104 44.3392-81.8176 77.6192-115.0976s71.9872-59.392 115.0976-77.6192c44.6464-18.944 92.0576-28.4672 141.0048-28.4672 48.8448 0 96.256 9.6256 140.9024 28.3648 43.1104 18.2272 81.8176 44.3392 115.0976 77.6192s59.392 71.9872 77.6192 115.0976c18.944 44.6464 28.4672 92.0576 28.4672 141.0048 0 48.8448-9.6256 96.256-28.3648 140.9024-18.2272 43.1104-44.3392 81.8176-77.6192 115.0976s-71.9872 59.392-115.0976 77.6192c-44.7488 18.7392-92.16 28.3648-141.0048 28.3648z m0 0" p-id="4008" fill="#ffffff"></path></svg>